<svg width="74" height="174" viewBox="0 0 74 174" fill="none" xmlns="http://www.w3.org/2000/svg">
<path d="M65.2415 0H8.10189C3.41132 0 0 4.27924 0 9.03396V164.513C0 169.268 3.41133 173.072 7.67548 173.072H65.2415C69.9321 173.072 73.3434 168.792 73.3434 164.038V9.03396C73.3434 4.27924 69.9321 0 65.2415 0ZM72.0642 161.185C72.0642 165.94 68.6528 169.268 64.8151 169.268H9.80755C5.11699 169.268 1.70566 164.989 1.70566 160.234V10.9358C1.70566 6.6566 4.69057 3.3283 8.5283 3.3283H65.2415C69.0793 3.3283 72.0642 6.6566 72.0642 10.9358V161.185Z" fill="black"/>
</svg>
